<svg width="244" height="25" viewBox="0 0 244 25" fill="none" xmlns="http://www.w3.org/2000/svg">
<circle cx="91.5" cy="11.5" r="11.5" fill="#00B4FF"/>
<path d="M100.764 11.524L86 20.048L86 3L100.764 11.524Z" fill="#333333"/>
<path d="M23.02 2L13.87 23H10.03L0.85 2H5.08L12.07 18.2L19.12 2H23.02ZM25.236 2H29.136V23H25.236V2ZM34.8161 2H43.9961C46.2361 2 48.2261 2.44 49.9661 3.32C51.7061 4.18 53.0561 5.41 54.0161 7.01C54.9761 8.59 55.4561 10.42 55.4561 12.5C55.4561 14.58 54.9761 16.42 54.0161 18.02C53.0561 19.6 51.7061 20.83 49.9661 21.71C48.2261 22.57 46.2361 23 43.9961 23H34.8161V2ZM43.8161 19.7C45.3561 19.7 46.7061 19.41 47.8661 18.83C49.0461 18.23 49.9461 17.39 50.5661 16.31C51.2061 15.21 51.5261 13.94 51.5261 12.5C51.5261 11.06 51.2061 9.8 50.5661 8.72C49.9461 7.62 49.0461 6.78 47.8661 6.2C46.7061 5.6 45.3561 5.3 43.8161 5.3H38.7161V19.7H43.8161ZM75.3513 19.73V23H59.6013V2H74.9313V5.27H63.5013V10.73H73.6413V13.94H63.5013V19.73H75.3513Z" fill="#00B4FF"/>
<path d="M108.918 23.7674C108.918 23.7674 113.801 3.73265 113.956 3.31598C114.181 2.65626 114.874 1.59723 116.363 1.59723C117.835 1.61459 118.649 3.14237 119.03 3.8889C119.411 4.61806 125.055 15.7118 125.055 15.7118L122.51 20.7118L116.744 9.79167L113.887 23.7674H108.918Z" fill="white"/>
<path d="M123.878 22.1528L133.522 3.33333C133.522 3.33333 134.579 1.5625 135.808 1.5625C137.401 1.5625 138.146 2.82986 138.44 3.75C138.007 4.80903 128.518 23.0729 128.518 23.0729C128.518 23.0729 127.722 24.1319 126.475 24.1319C125.228 24.1319 124.086 22.8472 123.878 22.1528Z" fill="white"/>
<path d="M139.669 5.85071L136.656 11.6667L139.219 23.8195H143.998L139.669 5.85071Z" fill="white"/>
<path d="M160.828 8.33333L151.114 24.1319H145.47L157.971 3.40278C157.971 3.40278 159.253 1.5625 160.967 1.5625C162.664 1.5625 163.564 3.00347 163.824 3.40278C164.083 3.80208 176.308 24.1319 176.308 24.1319H170.403L166.698 18.0729L157.227 18.0903L160.066 13.4722H164.014L160.828 8.33333Z" fill="white"/>
<path d="M176.256 1.5625H182.576L189.45 8.57639L186.281 11.8924L176.256 1.5625Z" fill="white"/>
<path d="M198.783 1.57983L177.052 24.0972L183.598 24.1319L191.13 16.4409L198.558 24.1319H205.137L194.194 12.8819L205.137 1.57983H198.783Z" fill="white"/>
<path d="M205.397 1.73608L217.137 20.625L219.873 16.1805L211.215 1.73608H205.397Z" fill="white"/>
<path d="M230.798 1.73608H236.478L223.145 23.0903C223.145 23.0903 222.401 24.3055 221.223 24.3055C221.223 24.3055 220.409 24.3055 219.873 23.7153C219.422 23.2465 218.574 22.2048 218.574 22.2048L230.798 1.73608Z" fill="white"/>
<path d="M237.69 1.5625H242.244L242.278 24.1319H237.69V1.5625Z" fill="white"/>
</svg>
