<svg width="164" height="25" viewBox="0 0 164 25" fill="none" xmlns="http://www.w3.org/2000/svg">
<path d="M28.9177 23.7674C28.9177 23.7674 33.8005 3.73265 33.9564 3.31598C34.1815 2.65626 34.8741 1.59723 36.3632 1.59723C37.835 1.61459 38.6488 3.14237 39.0297 3.8889C39.4106 4.61806 45.0553 15.7118 45.0553 15.7118L42.51 20.7118L36.7441 9.79167L33.8871 23.7674H28.9177Z" fill="white"/>
<path d="M43.8779 22.1528L53.5224 3.33333C53.5224 3.33333 54.5786 1.5625 55.808 1.5625C57.401 1.5625 58.1455 2.82986 58.4399 3.75C58.007 4.80903 48.5183 23.0729 48.5183 23.0729C48.5183 23.0729 47.7219 24.1319 46.4752 24.1319C45.2285 24.1319 44.0857 22.8472 43.8779 22.1528Z" fill="white"/>
<path d="M59.6692 5.85071L56.6564 11.6667L59.2191 23.8195H63.998L59.6692 5.85071Z" fill="white"/>
<path d="M80.8282 8.33333L71.1145 24.1319H65.4698L77.9713 3.40278C77.9713 3.40278 79.2526 1.5625 80.9668 1.5625C82.6636 1.5625 83.564 3.00347 83.8238 3.40278C84.0835 3.80208 96.3079 24.1319 96.3079 24.1319H90.4035L86.6981 18.0729L77.2267 18.0903L80.0664 13.4722H84.0142L80.8282 8.33333Z" fill="white"/>
<path d="M96.256 1.5625H102.576L109.45 8.57639L106.281 11.8924L96.256 1.5625Z" fill="white"/>
<path d="M118.783 1.57983L97.0525 24.0972L103.598 24.1319L111.13 16.4409L118.558 24.1319H125.137L114.194 12.8819L125.137 1.57983H118.783Z" fill="white"/>
<path d="M125.397 1.73608L137.137 20.625L139.873 16.1805L131.215 1.73608H125.397Z" fill="white"/>
<path d="M150.798 1.73608H156.478L143.145 23.0903C143.145 23.0903 142.401 24.3055 141.223 24.3055C141.223 24.3055 140.409 24.3055 139.873 23.7153C139.422 23.2465 138.574 22.2048 138.574 22.2048L150.798 1.73608Z" fill="white"/>
<path d="M157.69 1.5625H162.244L162.278 24.1319H157.69V1.5625Z" fill="white"/>
<circle cx="11.5" cy="11.5" r="11.5" fill="#00B4FF"/>
<path d="M20.764 11.524L6 20.048L6 3L20.764 11.524Z" fill="#333333"/>
</svg>
