<!-- Generated by IcoMoon.io -->
<svg version="1.1" xmlns="http://www.w3.org/2000/svg" width="32" height="32" viewBox="0 0 32 32">
<title>icon-arrivals</title>
<path d="M17.188 2.254c-0.52-0.874-1.84-0.879-2.372-0.017l-4.517 7.28-8.293 2.040c-0.999 0.218-1.421 1.475-0.762 2.254l5.537 6.545-0.631 8.512c-0.104 1.021 0.958 1.815 1.907 1.431l7.939-3.24 7.94 3.24c0.922 0.374 1.98-0.381 1.909-1.387l-0.631-8.569 5.534-6.531c0.651-0.768 0.247-2.007-0.729-2.246l-8.324-2.049zM17.987 1.77l4.298 6.93 7.959 1.955c1.645 0.404 2.316 2.467 1.22 3.761l-5.283 6.253 0.6 8.177c0.118 1.665-1.605 2.967-3.196 2.322l-7.588-3.096-7.588 3.096c-1.586 0.642-3.355-0.673-3.191-2.378l0.595-8.12-5.283-6.253c-1.081-1.278-0.432-3.403 1.279-3.776l7.9-1.94 4.312-6.954c0.897-1.452 3.087-1.44 3.966 0.024z"></path>
<path d="M13.074 18.052c0 0.052-0.009 0.098-0.027 0.139-0.018 0.040-0.042 0.073-0.072 0.099-0.031 0.027-0.067 0.047-0.108 0.059-0.041 0.012-0.084 0.018-0.126 0.018h-0.376c-0.078 0-0.147-0.008-0.203-0.024-0.057-0.015-0.11-0.043-0.158-0.085s-0.095-0.098-0.14-0.169c-0.045-0.070-0.095-0.161-0.15-0.274l-1.081-2.030c-0.062-0.121-0.126-0.251-0.191-0.391-0.064-0.139-0.123-0.276-0.174-0.408h-0.007c0.009 0.161 0.016 0.321 0.021 0.481 0.004 0.161 0.006 0.325 0.006 0.495v2.273c0 0.022-0.006 0.043-0.018 0.059-0.011 0.018-0.033 0.033-0.063 0.046s-0.071 0.022-0.122 0.029c-0.052 0.007-0.118 0.010-0.198 0.010-0.078 0-0.143-0.003-0.195-0.010s-0.092-0.016-0.121-0.029c-0.029-0.013-0.048-0.028-0.060-0.046-0.011-0.017-0.017-0.038-0.017-0.059v-3.904c0-0.104 0.031-0.183 0.093-0.236 0.061-0.053 0.136-0.079 0.226-0.079h0.474c0.085 0 0.156 0.007 0.214 0.022s0.11 0.039 0.156 0.072c0.046 0.033 0.089 0.080 0.13 0.14s0.081 0.132 0.124 0.219l0.847 1.588c0.049 0.096 0.097 0.191 0.145 0.284s0.095 0.186 0.14 0.278c0.045 0.093 0.088 0.185 0.131 0.274s0.083 0.179 0.124 0.268h0.003c-0.007-0.157-0.012-0.32-0.015-0.49-0.004-0.17-0.005-0.332-0.005-0.486v-2.038c0-0.022 0.007-0.042 0.019-0.061 0.014-0.017 0.037-0.033 0.068-0.047 0.031-0.012 0.072-0.023 0.124-0.027 0.052-0.006 0.118-0.009 0.198-0.009 0.077 0 0.14 0.003 0.191 0.009 0.051 0.005 0.092 0.015 0.119 0.027 0.028 0.014 0.048 0.030 0.058 0.047 0.012 0.018 0.017 0.039 0.017 0.061zM16.594 18.016c0 0.066-0.002 0.119-0.008 0.163s-0.014 0.079-0.025 0.107c-0.011 0.026-0.025 0.046-0.042 0.058-0.016 0.012-0.036 0.018-0.055 0.018h-2.181c-0.075 0-0.137-0.022-0.187-0.065s-0.076-0.115-0.076-0.213v-3.786c0-0.098 0.025-0.169 0.076-0.213s0.112-0.065 0.187-0.065h2.167c0.021 0 0.038 0.006 0.054 0.017s0.029 0.030 0.040 0.058c0.012 0.028 0.019 0.064 0.025 0.108s0.009 0.098 0.009 0.166c0 0.062-0.004 0.116-0.009 0.159s-0.014 0.079-0.025 0.105c-0.011 0.028-0.024 0.047-0.040 0.059-0.016 0.012-0.033 0.018-0.054 0.018h-1.55v1.061h1.312c0.021 0 0.039 0.007 0.056 0.018 0.016 0.013 0.030 0.032 0.041 0.057 0.012 0.026 0.020 0.061 0.025 0.104s0.008 0.096 0.008 0.159c0 0.065-0.002 0.119-0.008 0.161s-0.014 0.077-0.025 0.102c-0.012 0.026-0.025 0.045-0.041 0.055-0.017 0.011-0.035 0.017-0.056 0.017h-1.312v1.224h1.564c0.019 0 0.039 0.007 0.055 0.020 0.017 0.012 0.031 0.031 0.042 0.058s0.020 0.062 0.025 0.105c0.006 0.044 0.008 0.098 0.008 0.163zM21.944 18.137c-0.012 0.054-0.032 0.096-0.055 0.128-0.024 0.033-0.058 0.057-0.105 0.074s-0.108 0.028-0.182 0.033c-0.073 0.006-0.167 0.009-0.282 0.009-0.127 0-0.229-0.003-0.307-0.009-0.077-0.006-0.137-0.016-0.182-0.033s-0.078-0.041-0.098-0.074c-0.020-0.032-0.037-0.074-0.047-0.128l-0.695-2.753h-0.007l-0.658 2.753c-0.011 0.052-0.026 0.093-0.047 0.126-0.020 0.032-0.052 0.057-0.095 0.074-0.043 0.018-0.103 0.030-0.179 0.035-0.074 0.006-0.173 0.009-0.297 0.009-0.129 0-0.234-0.003-0.31-0.009s-0.138-0.016-0.184-0.033c-0.044-0.017-0.076-0.041-0.097-0.074-0.019-0.032-0.037-0.074-0.050-0.128l-0.987-3.79c-0.019-0.080-0.031-0.143-0.033-0.189s0.010-0.081 0.039-0.106c0.028-0.024 0.073-0.039 0.137-0.045s0.152-0.009 0.267-0.009c0.104 0 0.188 0.002 0.25 0.005s0.108 0.012 0.138 0.023c0.032 0.012 0.053 0.031 0.064 0.054 0.011 0.024 0.021 0.056 0.028 0.1l0.762 3.326h0.004l0.792-3.303c0.009-0.043 0.020-0.077 0.035-0.104 0.014-0.026 0.039-0.047 0.073-0.062s0.082-0.024 0.143-0.030c0.060-0.006 0.141-0.009 0.242-0.009 0.107 0 0.192 0.002 0.257 0.007 0.063 0.005 0.112 0.014 0.148 0.028 0.034 0.015 0.059 0.036 0.076 0.062 0.015 0.027 0.027 0.063 0.037 0.108l0.819 3.303h0.006l0.763-3.317c0.005-0.036 0.015-0.066 0.026-0.092 0.011-0.026 0.032-0.046 0.064-0.061s0.076-0.024 0.134-0.030c0.058-0.006 0.14-0.009 0.245-0.009 0.098 0 0.175 0.003 0.229 0.009s0.095 0.021 0.119 0.045c0.025 0.025 0.036 0.061 0.032 0.109s-0.015 0.114-0.035 0.197z"></path>
</svg>
