<!-- Generated by IcoMoon.io -->
<svg version="1.1" xmlns="http://www.w3.org/2000/svg" width="32" height="32" viewBox="0 0 32 32">
<title>icon-home</title>
<path d="M14.067 3.376c0.518-0.439 1.195-0.706 1.933-0.706s1.415 0.267 1.938 0.71l-0.004-0.004 9 7.589c0.676 0.571 1.067 1.409 1.067 2.293v13.071c0 1.289-1.045 2.333-2.333 2.333v0h-4.667c-1.289 0-2.333-1.045-2.333-2.333v0-7.333c0-0.184-0.149-0.333-0.333-0.333v0h-4.667c-0.184 0-0.333 0.149-0.333 0.333v0 7.333c0 1.289-1.045 2.333-2.333 2.333v0h-4.667c-1.289 0-2.333-1.045-2.333-2.333v0-13.071c0-0.884 0.391-1.723 1.067-2.293l9-7.589zM16.644 4.905c-0.173-0.146-0.398-0.235-0.644-0.235s-0.471 0.089-0.645 0.236l0.001-0.001-9 7.588c-0.218 0.184-0.356 0.458-0.356 0.764v13.071c0 0.184 0.149 0.333 0.333 0.333h4.667c0.184 0 0.333-0.149 0.333-0.333v0-7.333c0-1.289 1.045-2.333 2.333-2.333h4.667c1.288 0 2.333 1.044 2.333 2.333v7.333c0 0.184 0.149 0.333 0.333 0.333h4.667c0.184 0 0.333-0.149 0.333-0.333v0-13.069c-0-0.306-0.138-0.58-0.355-0.763l-0.001-0.001-9-7.589z"></path>
</svg>
