<!-- Generated by IcoMoon.io -->
<svg version="1.1" xmlns="http://www.w3.org/2000/svg" width="32" height="32" viewBox="0 0 32 32">
<title>icon-catalog</title>
<path d="M2.955 14.146h11.597c1.203 0 2.176-0.906 2.176-2.022s-0.976-2.022-2.176-2.022h-11.597c-1.203 0-2.176 0.906-2.176 2.022s0.976 2.022 2.176 2.022zM2.955 8.082h18.848c1.2 0 2.173-0.902 2.173-2.019 0-1.12-0.976-2.022-2.176-2.022h-18.848c-1.194 0-2.166 0.906-2.166 2.022s0.973 2.019 2.173 2.019zM2.955 21.221h26.093c1.2 0 2.173-0.906 2.173-2.019 0-1.12-0.976-2.022-2.176-2.022h-26.086c-1.2 0-2.176 0.906-2.176 2.022 0 1.114 0.976 2.019 2.176 2.019zM2.955 27.96h20.544c1.2 0 2.176-0.906 2.176-2.022s-0.976-2.019-2.176-2.019h-20.544c-1.2 0-2.176 0.902-2.176 2.019 0 1.12 0.976 2.022 2.176 2.022z"></path>
</svg>
