<!-- Generated by IcoMoon.io -->
<svg version="1.1" xmlns="http://www.w3.org/2000/svg" width="32" height="32" viewBox="0 0 32 32">
<title>icon-rating</title>
<path d="M6.035 29.6v-3.627c0-1-0.752-1.813-1.683-1.813-0.933 0-1.685 0.813-1.685 1.813v3.627c0 1 0.755 1.808 1.685 1.808s1.683-0.811 1.683-1.811zM11.651 29.6v-9.669c0-1.003-0.755-1.813-1.683-1.813-0.933 0-1.685 0.813-1.685 1.813v9.664c0 1.003 0.755 1.813 1.685 1.813 0.928 0 1.683-0.813 1.683-1.813zM17.267 29.6v-15.707c0-1.003-0.755-1.813-1.685-1.813s-1.683 0.813-1.683 1.813v15.707c0 1 0.752 1.808 1.683 1.808 0.933 0 1.685-0.811 1.685-1.811zM22.883 29.6v-21.749c0-1.003-0.755-1.813-1.685-1.813s-1.685 0.813-1.685 1.813v21.744c0 1.003 0.755 1.813 1.685 1.813s1.685-0.813 1.685-1.813zM28.499 29.6v-27.787c0-1.003-0.755-1.813-1.685-1.813s-1.685 0.813-1.685 1.813v27.784c0 1.003 0.755 1.813 1.685 1.813s1.685-0.813 1.685-1.813z"></path>
</svg>
