<!-- Generated by IcoMoon.io -->
<svg version="1.1" xmlns="http://www.w3.org/2000/svg" width="32" height="32" viewBox="0 0 32 32">
<title>icon-close</title>
<path d="M16 17.867l-6.533 6.533q-0.367 0.367-0.933 0.367t-0.933-0.367-0.367-0.933 0.367-0.933l6.533-6.533-6.533-6.533q-0.367-0.367-0.367-0.933t0.367-0.933 0.933-0.367 0.933 0.367l6.533 6.533 6.533-6.533q0.367-0.367 0.933-0.367t0.933 0.367 0.367 0.933-0.367 0.933l-6.533 6.533 6.533 6.533q0.367 0.367 0.367 0.933t-0.367 0.933-0.933 0.367-0.933-0.367l-6.533-6.533z"></path>
</svg>
