<!-- Generated by IcoMoon.io -->
<svg version="1.1" xmlns="http://www.w3.org/2000/svg" width="32" height="32" viewBox="0 0 32 32">
<title>icon-search</title>
<path d="M31.509 28.788l-7.253-7.253c1.676-2.213 2.684-5.012 2.684-8.046 0-0.006 0-0.012 0-0.019v0.001c0.002-7.426-6.041-13.47-13.468-13.47s-13.472 6.044-13.472 13.47c0 7.428 6.044 13.472 13.47 13.472 0.005 0 0.010 0 0.015 0 3.036 0 5.835-1.009 8.082-2.711l-0.034 0.024 7.253 7.253c0.339 0.304 0.789 0.489 1.283 0.489 1.064 0 1.927-0.863 1.927-1.927 0-0.493-0.185-0.943-0.49-1.284l0.002 0.002zM3.847 13.47c0.001-5.313 4.308-9.62 9.621-9.62s9.621 4.308 9.621 9.621c0 5.313-4.307 9.62-9.619 9.621h-0c-5.312-0.007-9.615-4.311-9.621-9.623v-0.001z"></path>
</svg>
