<!-- Generated by IcoMoon.io -->
<svg version="1.1" xmlns="http://www.w3.org/2000/svg" width="32" height="32" viewBox="0 0 32 32">
<title>icon-link</title>
<path d="M18.909 10.909v-2.909h5.818c4.016 0 7.272 3.256 7.272 7.272s-3.256 7.272-7.272 7.272v0h-5.818v-2.906h5.818c2.41 0 4.364-1.954 4.364-4.364s-1.954-4.364-4.364-4.364h-5.818zM13.091 19.637v2.907h-5.819c-4.017 0-7.273-3.256-7.273-7.273s3.256-7.273 7.273-7.273v0h5.819v2.909h-5.819c-2.41 0-4.364 1.954-4.364 4.364s1.954 4.364 4.364 4.364h5.819zM8.728 16.728v-2.91h14.544v2.91h-14.544z"></path>
</svg>
