<!-- Generated by IcoMoon.io -->
<svg version="1.1" xmlns="http://www.w3.org/2000/svg" width="32" height="32" viewBox="0 0 32 32">
<title>icon-vk</title>
<path d="M31.247 8.31c0.237-0.7 0-1.209-1.050-1.209h-3.492c-0.88 0-1.287 0.446-1.524 0.922 0 0-1.796 4.068-4.304 6.705-0.813 0.764-1.186 1.017-1.627 1.017-0.237 0-0.543-0.254-0.543-0.953v-6.517c0-0.825-0.271-1.207-1.017-1.207h-5.491c-0.543 0-0.881 0.381-0.881 0.763 0 0.794 1.253 0.985 1.389 3.21v4.833c0 1.049-0.199 1.241-0.644 1.241-1.186 0-4.067-4.1-5.795-8.772-0.336-0.925-0.677-1.275-1.558-1.275h-3.524c-1.017 0-1.186 0.445-1.186 0.921 0 0.859 1.186 5.181 5.524 10.901 2.88 3.907 6.981 6.007 10.675 6.007 2.237 0 2.508-0.477 2.508-1.272v-2.955c0-0.953 0.203-1.113 0.915-1.113 0.508 0 1.424 0.254 3.49 2.129 2.372 2.225 2.779 3.242 4.1 3.242h3.492c1.017 0 1.491-0.476 1.22-1.399-0.305-0.921-1.458-2.255-2.948-3.844-0.813-0.889-2.034-1.875-2.406-2.352-0.508-0.636-0.373-0.89 0-1.462-0.034 0 4.237-5.657 4.676-7.566z"></path>
</svg>
