<!-- Generated by IcoMoon.io -->
<svg version="1.1" xmlns="http://www.w3.org/2000/svg" width="32" height="32" viewBox="0 0 32 32">
<title>icon-earth</title>
<path d="M16 32c8.822 0 16-7.179 16-16s-7.178-16-16-16-16 7.179-16 16 7.179 16 16 16zM3.349 18.49c0.539 0.282 1.098 0.459 1.677 0.504 1.802 0.141 3.067-0.923 4.077-1.776 0.811-0.683 1.328-1.102 1.856-1.034 0.725 0.096 1.43 1.091 1.869 2.032l0.010 0.024c0.147 0.346 0.512 1.438 0.453 2.41-0.021 0.358-0.208 0.571-0.93 1.229-0.704 0.64-1.581 1.438-2.17 2.792-0.328 0.744-0.531 1.609-0.56 2.519l-0 0.011c-3.208-1.852-5.516-4.958-6.267-8.63l-0.014-0.083zM19.034 3.478c2.138 0.518 4.062 1.568 5.635 3.002-0.109-0.016-0.208-0.038-0.331-0.048-1.637-0.112-2.803 0.674-3.646 1.248-0.408 0.277-0.821 0.56-1.002 0.525-0.165-0.038-0.459-0.278-0.752-0.848-0.453-0.854-0.389-2.326 0.096-3.878zM15.893 3.11c-0.576 2.173-0.488 4.21 0.296 5.685 0.683 1.328 1.654 2.168 2.813 2.434 0.253 0.058 0.496 0.083 0.728 0.083 1.133 0 2.022-0.603 2.704-1.064 0.69-0.467 1.138-0.742 1.709-0.717 0.202 0.013 0.224 0.027 0.501 0.208 0.394 0.253 0.984 0.637 2.064 0.848 0.336 0.067 0.688 0.112 1.045 0.131 0.721 1.551 1.142 3.367 1.142 5.281v0c0 7.112-5.787 12.896-12.898 12.896-1.099 0-2.162-0.154-3.182-0.414-0.16-0.995-0.093-1.862 0.218-2.576 0.325-0.744 0.829-1.203 1.413-1.736 0.819-0.746 1.838-1.674 1.938-3.338 0.080-1.344-0.312-2.974-0.712-3.821l0.013-0.005-0.104-0.226c-0.467-1-1.814-3.357-4.219-3.678-1.904-0.246-3.267 0.898-4.264 1.739-0.806 0.683-1.331 1.109-1.84 1.053-0.595-0.045-1.299-0.688-2.005-1.778 0.915-6.182 6.219-10.955 12.642-11.008z"></path>
</svg>
