<!-- Generated by IcoMoon.io -->
<svg version="1.1" xmlns="http://www.w3.org/2000/svg" width="32" height="32" viewBox="0 0 32 32">
<title>icon-recommendation</title>
<path d="M24 11h-3v-6c0-1.657-1.343-3-3-3v0h-0.4c-1.4 0.001-2.575 0.962-2.905 2.259l-0.004 0.021-2 5.501c-0.258 0.704-0.914 1.201-1.688 1.219l-0.002 0h-8v18h21c2.761 0 5-2.239 5-5v0-8c0-2.761-2.239-5-5-5v0zM9 27h-4v-14h4v14zM27 24c0 1.657-1.343 3-3 3v0h-13v-14c0 0 0.001 0 0.002 0 1.656 0 3.066-1.051 3.601-2.523l0.008-0.027 2-5.552v-0.117c0.103-0.451 0.501-0.782 0.976-0.782 0.009 0 0.017 0 0.025 0l-0.001-0h0.389c0.552 0 1 0.448 1 1v0 8h5c1.657 0 3 1.343 3 3v0 8z"></path>
</svg>
