<!-- Generated by IcoMoon.io -->
<svg version="1.1" xmlns="http://www.w3.org/2000/svg" width="32" height="32" viewBox="0 0 32 32">
<title>icon-email</title>
<path d="M29.333 11.478v10.855c0 0 0 0 0 0 0 2.307-1.802 4.192-4.075 4.326l-0.012 0.001-0.246 0.007h-18.001c-0 0-0 0-0 0-2.307 0-4.193-1.803-4.326-4.076l-0.001-0.012-0.007-0.246v-10.857l12.869 6.742c0.29 0.152 0.638 0.152 0.928 0l12.869-6.742zM7 5.334h18c2.247 0 4.094 1.709 4.312 3.898l-13.311 6.973-13.312-6.973c0.22-2.114 1.93-3.765 4.051-3.891l0.012-0.001 0.249-0.007z"></path>
</svg>
