<!-- Generated by IcoMoon.io -->
<svg version="1.1" xmlns="http://www.w3.org/2000/svg" width="32" height="32" viewBox="0 0 32 32">
<title>icon-cart</title>
<path d="M24.189 8h4.611c1.767 0 3.2 1.433 3.2 3.2v0 3.2c0 0.001 0 0.001 0 0.002 0 1.336-0.819 2.481-1.982 2.96l-0.021 0.008c0.005 0.068 0.008 0.148 0.008 0.229 0 0.247-0.027 0.487-0.079 0.718l0.004-0.022-2.49 11.2c-0.329 1.444-1.602 2.505-3.123 2.506h-16.634c-1.521-0-2.794-1.062-3.119-2.484l-0.004-0.021-2.49-11.2c-0.049-0.21-0.077-0.45-0.077-0.698 0-0.080 0.003-0.16 0.009-0.239l-0.001 0.011c-1.184-0.487-2.002-1.632-2.002-2.967 0-0 0-0.001 0-0.001v0-3.2c0-1.767 1.433-3.2 3.2-3.2v0h4.611l3.558-7.115c0.276-0.504 0.803-0.841 1.408-0.841 0.884 0 1.6 0.716 1.6 1.6 0 0.243-0.054 0.474-0.152 0.681l0.004-0.010-2.842 5.685h9.222l-2.842-5.685c-0.121-0.22-0.192-0.481-0.192-0.759 0-0.884 0.716-1.6 1.6-1.6 0.64 0 1.193 0.376 1.448 0.919l0.004 0.010 3.558 7.115zM25.6 11.2c-0.001 0.883-0.717 1.598-1.6 1.598-0.622 0-1.162-0.355-1.426-0.874l-0.004-0.009-0.358-0.715h-12.422l-0.358 0.715c-0.269 0.528-0.808 0.883-1.43 0.883-0.883 0-1.599-0.715-1.6-1.598v-0h-3.2v3.2h25.6v-3.2h-3.2zM5.195 17.6l2.488 11.2h16.634l2.488-11.2h-21.61z"></path>
</svg>
