<svg width="0" height="0" class="hidden">
  <symbol version="1.1" xmlns="http://www.w3.org/2000/svg" viewBox="0 0 32 32" id="icon-arrivals">
    <title>icon-arrivals</title>
    <path fill="currentColor" d="M17.188 2.254c-0.52-0.874-1.84-0.879-2.372-0.017l-4.517 7.28-8.293 2.040c-0.999 0.218-1.421 1.475-0.762 2.254l5.537 6.545-0.631 8.512c-0.104 1.021 0.958 1.815 1.907 1.431l7.939-3.24 7.94 3.24c0.922 0.374 1.98-0.381 1.909-1.387l-0.631-8.569 5.534-6.531c0.651-0.768 0.247-2.007-0.729-2.246l-8.324-2.049zM17.987 1.77l4.298 6.93 7.959 1.955c1.645 0.404 2.316 2.467 1.22 3.761l-5.283 6.253 0.6 8.177c0.118 1.665-1.605 2.967-3.196 2.322l-7.588-3.096-7.588 3.096c-1.586 0.642-3.355-0.673-3.191-2.378l0.595-8.12-5.283-6.253c-1.081-1.278-0.432-3.403 1.279-3.776l7.9-1.94 4.312-6.954c0.897-1.452 3.087-1.44 3.966 0.024z"></path>
    <path fill="currentColor" d="M13.074 18.052c0 0.052-0.009 0.098-0.027 0.139-0.018 0.040-0.042 0.073-0.072 0.099-0.031 0.027-0.067 0.047-0.108 0.059-0.041 0.012-0.084 0.018-0.126 0.018h-0.376c-0.078 0-0.147-0.008-0.203-0.024-0.057-0.015-0.11-0.043-0.158-0.085s-0.095-0.098-0.14-0.169c-0.045-0.070-0.095-0.161-0.15-0.274l-1.081-2.030c-0.062-0.121-0.126-0.251-0.191-0.391-0.064-0.139-0.123-0.276-0.174-0.408h-0.007c0.009 0.161 0.016 0.321 0.021 0.481 0.004 0.161 0.006 0.325 0.006 0.495v2.273c0 0.022-0.006 0.043-0.018 0.059-0.011 0.018-0.033 0.033-0.063 0.046s-0.071 0.022-0.122 0.029c-0.052 0.007-0.118 0.010-0.198 0.010-0.078 0-0.143-0.003-0.195-0.010s-0.092-0.016-0.121-0.029c-0.029-0.013-0.048-0.028-0.060-0.046-0.011-0.017-0.017-0.038-0.017-0.059v-3.904c0-0.104 0.031-0.183 0.093-0.236 0.061-0.053 0.136-0.079 0.226-0.079h0.474c0.085 0 0.156 0.007 0.214 0.022s0.11 0.039 0.156 0.072c0.046 0.033 0.089 0.080 0.13 0.14s0.081 0.132 0.124 0.219l0.847 1.588c0.049 0.096 0.097 0.191 0.145 0.284s0.095 0.186 0.14 0.278c0.045 0.093 0.088 0.185 0.131 0.274s0.083 0.179 0.124 0.268h0.003c-0.007-0.157-0.012-0.32-0.015-0.49-0.004-0.17-0.005-0.332-0.005-0.486v-2.038c0-0.022 0.007-0.042 0.019-0.061 0.014-0.017 0.037-0.033 0.068-0.047 0.031-0.012 0.072-0.023 0.124-0.027 0.052-0.006 0.118-0.009 0.198-0.009 0.077 0 0.14 0.003 0.191 0.009 0.051 0.005 0.092 0.015 0.119 0.027 0.028 0.014 0.048 0.030 0.058 0.047 0.012 0.018 0.017 0.039 0.017 0.061zM16.594 18.016c0 0.066-0.002 0.119-0.008 0.163s-0.014 0.079-0.025 0.107c-0.011 0.026-0.025 0.046-0.042 0.058-0.016 0.012-0.036 0.018-0.055 0.018h-2.181c-0.075 0-0.137-0.022-0.187-0.065s-0.076-0.115-0.076-0.213v-3.786c0-0.098 0.025-0.169 0.076-0.213s0.112-0.065 0.187-0.065h2.167c0.021 0 0.038 0.006 0.054 0.017s0.029 0.030 0.040 0.058c0.012 0.028 0.019 0.064 0.025 0.108s0.009 0.098 0.009 0.166c0 0.062-0.004 0.116-0.009 0.159s-0.014 0.079-0.025 0.105c-0.011 0.028-0.024 0.047-0.040 0.059-0.016 0.012-0.033 0.018-0.054 0.018h-1.55v1.061h1.312c0.021 0 0.039 0.007 0.056 0.018 0.016 0.013 0.030 0.032 0.041 0.057 0.012 0.026 0.020 0.061 0.025 0.104s0.008 0.096 0.008 0.159c0 0.065-0.002 0.119-0.008 0.161s-0.014 0.077-0.025 0.102c-0.012 0.026-0.025 0.045-0.041 0.055-0.017 0.011-0.035 0.017-0.056 0.017h-1.312v1.224h1.564c0.019 0 0.039 0.007 0.055 0.020 0.017 0.012 0.031 0.031 0.042 0.058s0.020 0.062 0.025 0.105c0.006 0.044 0.008 0.098 0.008 0.163zM21.944 18.137c-0.012 0.054-0.032 0.096-0.055 0.128-0.024 0.033-0.058 0.057-0.105 0.074s-0.108 0.028-0.182 0.033c-0.073 0.006-0.167 0.009-0.282 0.009-0.127 0-0.229-0.003-0.307-0.009-0.077-0.006-0.137-0.016-0.182-0.033s-0.078-0.041-0.098-0.074c-0.020-0.032-0.037-0.074-0.047-0.128l-0.695-2.753h-0.007l-0.658 2.753c-0.011 0.052-0.026 0.093-0.047 0.126-0.020 0.032-0.052 0.057-0.095 0.074-0.043 0.018-0.103 0.030-0.179 0.035-0.074 0.006-0.173 0.009-0.297 0.009-0.129 0-0.234-0.003-0.31-0.009s-0.138-0.016-0.184-0.033c-0.044-0.017-0.076-0.041-0.097-0.074-0.019-0.032-0.037-0.074-0.050-0.128l-0.987-3.79c-0.019-0.080-0.031-0.143-0.033-0.189s0.010-0.081 0.039-0.106c0.028-0.024 0.073-0.039 0.137-0.045s0.152-0.009 0.267-0.009c0.104 0 0.188 0.002 0.25 0.005s0.108 0.012 0.138 0.023c0.032 0.012 0.053 0.031 0.064 0.054 0.011 0.024 0.021 0.056 0.028 0.1l0.762 3.326h0.004l0.792-3.303c0.009-0.043 0.020-0.077 0.035-0.104 0.014-0.026 0.039-0.047 0.073-0.062s0.082-0.024 0.143-0.030c0.060-0.006 0.141-0.009 0.242-0.009 0.107 0 0.192 0.002 0.257 0.007 0.063 0.005 0.112 0.014 0.148 0.028 0.034 0.015 0.059 0.036 0.076 0.062 0.015 0.027 0.027 0.063 0.037 0.108l0.819 3.303h0.006l0.763-3.317c0.005-0.036 0.015-0.066 0.026-0.092 0.011-0.026 0.032-0.046 0.064-0.061s0.076-0.024 0.134-0.030c0.058-0.006 0.14-0.009 0.245-0.009 0.098 0 0.175 0.003 0.229 0.009s0.095 0.021 0.119 0.045c0.025 0.025 0.036 0.061 0.032 0.109s-0.015 0.114-0.035 0.197z"></path>
  </symbol>
  <symbol version="1.1" xmlns="http://www.w3.org/2000/svg" viewBox="0 0 32 32" id="icon-cart">
    <title>icon-cart</title>
    <path fill="currentColor" d="M24.189 8h4.611c1.767 0 3.2 1.433 3.2 3.2v0 3.2c0 0.001 0 0.001 0 0.002 0 1.336-0.819 2.481-1.982 2.96l-0.021 0.008c0.005 0.068 0.008 0.148 0.008 0.229 0 0.247-0.027 0.487-0.079 0.718l0.004-0.022-2.49 11.2c-0.329 1.444-1.602 2.505-3.123 2.506h-16.634c-1.521-0-2.794-1.062-3.119-2.484l-0.004-0.021-2.49-11.2c-0.049-0.21-0.077-0.45-0.077-0.698 0-0.080 0.003-0.16 0.009-0.239l-0.001 0.011c-1.184-0.487-2.002-1.632-2.002-2.967 0-0 0-0.001 0-0.001v0-3.2c0-1.767 1.433-3.2 3.2-3.2v0h4.611l3.558-7.115c0.276-0.504 0.803-0.841 1.408-0.841 0.884 0 1.6 0.716 1.6 1.6 0 0.243-0.054 0.474-0.152 0.681l0.004-0.010-2.842 5.685h9.222l-2.842-5.685c-0.121-0.22-0.192-0.481-0.192-0.759 0-0.884 0.716-1.6 1.6-1.6 0.64 0 1.193 0.376 1.448 0.919l0.004 0.010 3.558 7.115zM25.6 11.2c-0.001 0.883-0.717 1.598-1.6 1.598-0.622 0-1.162-0.355-1.426-0.874l-0.004-0.009-0.358-0.715h-12.422l-0.358 0.715c-0.269 0.528-0.808 0.883-1.43 0.883-0.883 0-1.599-0.715-1.6-1.598v-0h-3.2v3.2h25.6v-3.2h-3.2zM5.195 17.6l2.488 11.2h16.634l2.488-11.2h-21.61z"></path>
  </symbol>
  <symbol version="1.1" xmlns="http://www.w3.org/2000/svg" viewBox="0 0 32 32" id="icon-catalog">
    <title>icon-catalog</title>
    <path fill="currentColor" d="M2.955 14.146h11.597c1.203 0 2.176-0.906 2.176-2.022s-0.976-2.022-2.176-2.022h-11.597c-1.203 0-2.176 0.906-2.176 2.022s0.976 2.022 2.176 2.022zM2.955 8.082h18.848c1.2 0 2.173-0.902 2.173-2.019 0-1.12-0.976-2.022-2.176-2.022h-18.848c-1.194 0-2.166 0.906-2.166 2.022s0.973 2.019 2.173 2.019zM2.955 21.221h26.093c1.2 0 2.173-0.906 2.173-2.019 0-1.12-0.976-2.022-2.176-2.022h-26.086c-1.2 0-2.176 0.906-2.176 2.022 0 1.114 0.976 2.019 2.176 2.019zM2.955 27.96h20.544c1.2 0 2.176-0.906 2.176-2.022s-0.976-2.019-2.176-2.019h-20.544c-1.2 0-2.176 0.902-2.176 2.019 0 1.12 0.976 2.022 2.176 2.022z"></path>
  </symbol>
  <symbol version="1.1" xmlns="http://www.w3.org/2000/svg" viewBox="0 0 32 32" id="icon-chevron-down">
    <title>icon-chevron-down</title>
    <path fill="currentColor" d="M16 18.425l11.061-11.314 3.161 3.232-14.222 14.546-14.222-14.546 3.161-3.232 11.061 11.314z"></path>
  </symbol>
  <symbol version="1.1" xmlns="http://www.w3.org/2000/svg" viewBox="0 0 32 32" id="icon-chevron-left">
    <title>icon-chevron-left</title>
    <path fill="currentColor" d="M13.575 16l11.314 11.061-3.232 3.161-14.546-14.222 14.546-14.222 3.232 3.161-11.314 11.061z"></path>
  </symbol>
  <symbol version="1.1" xmlns="http://www.w3.org/2000/svg" viewBox="0 0 32 32" id="icon-chevron-right">
    <title>icon-chevron-right</title>
    <path fill="currentColor" d="M18.425 16l-11.314 11.061 3.232 3.161 14.546-14.222-14.546-14.222-3.232 3.161 11.314 11.061z"></path>
  </symbol>
  <symbol version="1.1" xmlns="http://www.w3.org/2000/svg" viewBox="0 0 32 32" id="icon-chevron-up">
    <title>icon-chevron-up</title>
    <path fill="currentColor" d="M16 13.575l11.061 11.314 3.161-3.232-14.222-14.546-14.222 14.546 3.161 3.232 11.061-11.314z"></path>
  </symbol>
  <symbol version="1.1" xmlns="http://www.w3.org/2000/svg" viewBox="0 0 32 32" id="icon-comment">
    <title>icon-comment</title>
    <path fill="none" stroke-linejoin="round" stroke-linecap="round" stroke-miterlimit="10" stroke-width="2.0364" stroke="currentColor" d="M5.469 20.684h2.042l-2.659 8.087c-0.031 0.093-0.049 0.201-0.049 0.313 0 0.562 0.456 1.018 1.018 1.018 0.344 0 0.648-0.171 0.833-0.432l0.002-0.003 6.173-8.983h13.702c1.172 0 2.127-0.954 2.127-2.124v-14.545c-0.003-1.172-0.952-2.12-2.123-2.124h-21.065c-1.173 0-2.124 0.951-2.124 2.124v0 14.545c0 1.172 0.951 2.124 2.124 2.124z"></path>
  </symbol>
  <symbol version="1.1" xmlns="http://www.w3.org/2000/svg" viewBox="0 0 32 32" id="icon-close">
    <title>icon-close</title>
    <path fill="currentColor" d="M16 17.867l-6.533 6.533q-0.367 0.367-0.933 0.367t-0.933-0.367-0.367-0.933 0.367-0.933l6.533-6.533-6.533-6.533q-0.367-0.367-0.367-0.933t0.367-0.933 0.933-0.367 0.933 0.367l6.533 6.533 6.533-6.533q0.367-0.367 0.933-0.367t0.933 0.367 0.367 0.933-0.367 0.933l-6.533 6.533 6.533 6.533q0.367 0.367 0.367 0.933t-0.367 0.933-0.933 0.367-0.933-0.367l-6.533-6.533z"></path>
  </symbol>
  <symbol version="1.1" xmlns="http://www.w3.org/2000/svg" viewBox="0 0 32 32" id="icon-download">
    <title>icon-download</title>
    <path fill="currentColor" d="M32 22.4v6.4c0 1.767-1.433 3.2-3.2 3.2v0h-25.6c-1.767 0-3.2-1.433-3.2-3.2v0-6.4h3.2v6.4h25.6v-6.4h3.2zM17.6 16.938l5.269-5.269 2.262 2.262-9.131 9.131-9.131-9.131 2.262-2.262 5.269 5.269v-16.938h3.2v16.938z"></path>
  </symbol>
  <symbol version="1.1" xmlns="http://www.w3.org/2000/svg" viewBox="0 0 32 32" id="icon-earth">
    <title>icon-earth</title>
    <path fill="currentColor" d="M16 32c8.822 0 16-7.179 16-16s-7.178-16-16-16-16 7.179-16 16 7.179 16 16 16zM3.349 18.49c0.539 0.282 1.098 0.459 1.677 0.504 1.802 0.141 3.067-0.923 4.077-1.776 0.811-0.683 1.328-1.102 1.856-1.034 0.725 0.096 1.43 1.091 1.869 2.032l0.010 0.024c0.147 0.346 0.512 1.438 0.453 2.41-0.021 0.358-0.208 0.571-0.93 1.229-0.704 0.64-1.581 1.438-2.17 2.792-0.328 0.744-0.531 1.609-0.56 2.519l-0 0.011c-3.208-1.852-5.516-4.958-6.267-8.63l-0.014-0.083zM19.034 3.478c2.138 0.518 4.062 1.568 5.635 3.002-0.109-0.016-0.208-0.038-0.331-0.048-1.637-0.112-2.803 0.674-3.646 1.248-0.408 0.277-0.821 0.56-1.002 0.525-0.165-0.038-0.459-0.278-0.752-0.848-0.453-0.854-0.389-2.326 0.096-3.878zM15.893 3.11c-0.576 2.173-0.488 4.21 0.296 5.685 0.683 1.328 1.654 2.168 2.813 2.434 0.253 0.058 0.496 0.083 0.728 0.083 1.133 0 2.022-0.603 2.704-1.064 0.69-0.467 1.138-0.742 1.709-0.717 0.202 0.013 0.224 0.027 0.501 0.208 0.394 0.253 0.984 0.637 2.064 0.848 0.336 0.067 0.688 0.112 1.045 0.131 0.721 1.551 1.142 3.367 1.142 5.281v0c0 7.112-5.787 12.896-12.898 12.896-1.099 0-2.162-0.154-3.182-0.414-0.16-0.995-0.093-1.862 0.218-2.576 0.325-0.744 0.829-1.203 1.413-1.736 0.819-0.746 1.838-1.674 1.938-3.338 0.080-1.344-0.312-2.974-0.712-3.821l0.013-0.005-0.104-0.226c-0.467-1-1.814-3.357-4.219-3.678-1.904-0.246-3.267 0.898-4.264 1.739-0.806 0.683-1.331 1.109-1.84 1.053-0.595-0.045-1.299-0.688-2.005-1.778 0.915-6.182 6.219-10.955 12.642-11.008z"></path>
  </symbol>
  <symbol version="1.1" xmlns="http://www.w3.org/2000/svg" viewBox="0 0 32 32" id="icon-email">
    <title>icon-email</title>
    <path fill="currentColor" d="M29.333 11.478v10.855c0 0 0 0 0 0 0 2.307-1.802 4.192-4.075 4.326l-0.012 0.001-0.246 0.007h-18.001c-0 0-0 0-0 0-2.307 0-4.193-1.803-4.326-4.076l-0.001-0.012-0.007-0.246v-10.857l12.869 6.742c0.29 0.152 0.638 0.152 0.928 0l12.869-6.742zM7 5.334h18c2.247 0 4.094 1.709 4.312 3.898l-13.311 6.973-13.312-6.973c0.22-2.114 1.93-3.765 4.051-3.891l0.012-0.001 0.249-0.007z"></path>
  </symbol>
  <symbol version="1.1" xmlns="http://www.w3.org/2000/svg" viewBox="0 0 32 32" id="icon-home">
    <title>icon-home</title>
    <path fill="currentColor" d="M14.067 3.376c0.518-0.439 1.195-0.706 1.933-0.706s1.415 0.267 1.938 0.71l-0.004-0.004 9 7.589c0.676 0.571 1.067 1.409 1.067 2.293v13.071c0 1.289-1.045 2.333-2.333 2.333v0h-4.667c-1.289 0-2.333-1.045-2.333-2.333v0-7.333c0-0.184-0.149-0.333-0.333-0.333v0h-4.667c-0.184 0-0.333 0.149-0.333 0.333v0 7.333c0 1.289-1.045 2.333-2.333 2.333v0h-4.667c-1.289 0-2.333-1.045-2.333-2.333v0-13.071c0-0.884 0.391-1.723 1.067-2.293l9-7.589zM16.644 4.905c-0.173-0.146-0.398-0.235-0.644-0.235s-0.471 0.089-0.645 0.236l0.001-0.001-9 7.588c-0.218 0.184-0.356 0.458-0.356 0.764v13.071c0 0.184 0.149 0.333 0.333 0.333h4.667c0.184 0 0.333-0.149 0.333-0.333v0-7.333c0-1.289 1.045-2.333 2.333-2.333h4.667c1.288 0 2.333 1.044 2.333 2.333v7.333c0 0.184 0.149 0.333 0.333 0.333h4.667c0.184 0 0.333-0.149 0.333-0.333v0-13.069c-0-0.306-0.138-0.58-0.355-0.763l-0.001-0.001-9-7.589z"></path>
  </symbol>
  <symbol version="1.1" xmlns="http://www.w3.org/2000/svg" viewBox="0 0 32 32" id="icon-link">
    <title>icon-link</title>
    <path fill="currentColor" d="M18.909 10.909v-2.909h5.818c4.016 0 7.272 3.256 7.272 7.272s-3.256 7.272-7.272 7.272v0h-5.818v-2.906h5.818c2.41 0 4.364-1.954 4.364-4.364s-1.954-4.364-4.364-4.364h-5.818zM13.091 19.637v2.907h-5.819c-4.017 0-7.273-3.256-7.273-7.273s3.256-7.273 7.273-7.273v0h5.819v2.909h-5.819c-2.41 0-4.364 1.954-4.364 4.364s1.954 4.364 4.364 4.364h5.819zM8.728 16.728v-2.91h14.544v2.91h-14.544z"></path>
  </symbol>
  <symbol version="1.1" xmlns="http://www.w3.org/2000/svg" viewBox="0 0 32 32" id="icon-search">
    <title>icon-search</title>
    <path fill="currentColor" d="M31.509 28.788l-7.253-7.253c1.676-2.213 2.684-5.012 2.684-8.046 0-0.006 0-0.012 0-0.019v0.001c0.002-7.426-6.041-13.47-13.468-13.47s-13.472 6.044-13.472 13.47c0 7.428 6.044 13.472 13.47 13.472 0.005 0 0.010 0 0.015 0 3.036 0 5.835-1.009 8.082-2.711l-0.034 0.024 7.253 7.253c0.339 0.304 0.789 0.489 1.283 0.489 1.064 0 1.927-0.863 1.927-1.927 0-0.493-0.185-0.943-0.49-1.284l0.002 0.002zM3.847 13.47c0.001-5.313 4.308-9.62 9.621-9.62s9.621 4.308 9.621 9.621c0 5.313-4.307 9.62-9.619 9.621h-0c-5.312-0.007-9.615-4.311-9.621-9.623v-0.001z"></path>
  </symbol>
  <symbol version="1.1" xmlns="http://www.w3.org/2000/svg" viewBox="0 0 32 32" id="icon-rating">
    <title>icon-rating</title>
    <path fill="currentColor" d="M6.035 29.6v-3.627c0-1-0.752-1.813-1.683-1.813-0.933 0-1.685 0.813-1.685 1.813v3.627c0 1 0.755 1.808 1.685 1.808s1.683-0.811 1.683-1.811zM11.651 29.6v-9.669c0-1.003-0.755-1.813-1.683-1.813-0.933 0-1.685 0.813-1.685 1.813v9.664c0 1.003 0.755 1.813 1.685 1.813 0.928 0 1.683-0.813 1.683-1.813zM17.267 29.6v-15.707c0-1.003-0.755-1.813-1.685-1.813s-1.683 0.813-1.683 1.813v15.707c0 1 0.752 1.808 1.683 1.808 0.933 0 1.685-0.811 1.685-1.811zM22.883 29.6v-21.749c0-1.003-0.755-1.813-1.685-1.813s-1.685 0.813-1.685 1.813v21.744c0 1.003 0.755 1.813 1.685 1.813s1.685-0.813 1.685-1.813zM28.499 29.6v-27.787c0-1.003-0.755-1.813-1.685-1.813s-1.685 0.813-1.685 1.813v27.784c0 1.003 0.755 1.813 1.685 1.813s1.685-0.813 1.685-1.813z"></path>
  </symbol>
  <symbol version="1.1" xmlns="http://www.w3.org/2000/svg" viewBox="0 0 32 32" id="icon-play">
    <title>icon-play</title>
    <path fill="#fff" opacity="0.7" stroke="#0096d5" stroke-linejoin="miter" stroke-linecap="butt" stroke-miterlimit="4" stroke-width="2.2535" d="M30.707 16.18c0 8.092-6.559 14.651-14.651 14.651s-14.651-6.559-14.651-14.651c0-8.092 6.559-14.651 14.651-14.651s14.651 6.559 14.651 14.651z"></path>
    <path fill="#0096d5" d="M25.172 16.213l-14.025 8.098v-16.195l14.025 8.097z"></path>
  </symbol>
  <symbol version="1.1" xmlns="http://www.w3.org/2000/svg" viewBox="0 0 32 32" id="icon-recommendation">
    <title>icon-recommendation</title>
    <path fill="currentColor" d="M24 11h-3v-6c0-1.657-1.343-3-3-3v0h-0.4c-1.4 0.001-2.575 0.962-2.905 2.259l-0.004 0.021-2 5.501c-0.258 0.704-0.914 1.201-1.688 1.219l-0.002 0h-8v18h21c2.761 0 5-2.239 5-5v0-8c0-2.761-2.239-5-5-5v0zM9 27h-4v-14h4v14zM27 24c0 1.657-1.343 3-3 3v0h-13v-14c0 0 0.001 0 0.002 0 1.656 0 3.066-1.051 3.601-2.523l0.008-0.027 2-5.552v-0.117c0.103-0.451 0.501-0.782 0.976-0.782 0.009 0 0.017 0 0.025 0l-0.001-0h0.389c0.552 0 1 0.448 1 1v0 8h5c1.657 0 3 1.343 3 3v0 8z"></path>
  </symbol>
  <symbol version="1.1" xmlns="http://www.w3.org/2000/svg" viewBox="0 0 32 32" id="icon-vk">
    <title>icon-vk</title>
    <path fill="currentColor" d="M31.247 8.31c0.237-0.7 0-1.209-1.050-1.209h-3.492c-0.88 0-1.287 0.446-1.524 0.922 0 0-1.796 4.068-4.304 6.705-0.813 0.764-1.186 1.017-1.627 1.017-0.237 0-0.543-0.254-0.543-0.953v-6.517c0-0.825-0.271-1.207-1.017-1.207h-5.491c-0.543 0-0.881 0.381-0.881 0.763 0 0.794 1.253 0.985 1.389 3.21v4.833c0 1.049-0.199 1.241-0.644 1.241-1.186 0-4.067-4.1-5.795-8.772-0.336-0.925-0.677-1.275-1.558-1.275h-3.524c-1.017 0-1.186 0.445-1.186 0.921 0 0.859 1.186 5.181 5.524 10.901 2.88 3.907 6.981 6.007 10.675 6.007 2.237 0 2.508-0.477 2.508-1.272v-2.955c0-0.953 0.203-1.113 0.915-1.113 0.508 0 1.424 0.254 3.49 2.129 2.372 2.225 2.779 3.242 4.1 3.242h3.492c1.017 0 1.491-0.476 1.22-1.399-0.305-0.921-1.458-2.255-2.948-3.844-0.813-0.889-2.034-1.875-2.406-2.352-0.508-0.636-0.373-0.89 0-1.462-0.034 0 4.237-5.657 4.676-7.566z"></path>
  </symbol>
</svg>